<?xml version="1.0" standalone="no"?>
<!DOCTYPE svg PUBLIC "-//W3C//DTD SVG 20010904//EN"
 "http://www.w3.org/TR/2001/REC-SVG-20010904/DTD/svg10.dtd">
<svg version="1.0" xmlns="http://www.w3.org/2000/svg"
 width="1920.000000pt" height="1920.000000pt" viewBox="0 0 1920.000000 1920.000000"
 preserveAspectRatio="xMidYMid meet">

<g transform="translate(0.000000,1920.000000) scale(0.100000,-0.100000)"
fill="#000000" stroke="none">
<path d="M0 9600 l0 -9600 9600 0 9600 0 0 9600 0 9600 -9600 0 -9600 0 0
-9600z m12700 8325 c135 -8 279 -19 320 -24 41 -6 107 -13 145 -16 168 -16
619 -88 875 -140 63 -13 142 -26 175 -30 33 -3 105 -15 160 -25 671 -127 1409
-447 2130 -925 173 -114 525 -369 525 -380 0 -2 -341 -491 -758 -1087 -417
-596 -784 -1119 -814 -1163 -31 -44 -70 -99 -88 -123 l-31 -42 -72 63 c-272
237 -639 464 -1012 627 -403 175 -788 279 -1255 337 -203 25 -770 25 -979 0
-280 -34 -499 -75 -755 -142 -263 -68 -722 -361 -946 -602 -389 -421 -458
-870 -208 -1368 83 -164 152 -257 341 -456 148 -156 194 -198 272 -248 124
-80 137 -86 541 -262 192 -83 378 -165 414 -181 36 -17 155 -70 265 -118 110
-48 232 -102 270 -120 39 -18 156 -70 260 -117 645 -288 1435 -660 1975 -929
741 -370 1193 -632 1348 -782 32 -30 95 -81 142 -113 47 -32 123 -88 170 -125
118 -94 398 -377 504 -509 442 -555 732 -1236 861 -2025 78 -482 51 -1243 -66
-1795 -260 -1232 -868 -2173 -1839 -2847 -680 -472 -1606 -804 -2642 -948
-240 -33 -438 -44 -788 -44 -787 0 -1542 104 -2335 320 -847 231 -1716 613
-2465 1084 -224 140 -274 175 -689 474 -146 105 -344 248 -440 317 -96 69
-176 130 -178 135 -2 5 259 282 580 616 320 334 780 814 1022 1066 242 253
444 461 448 461 4 1 52 -38 105 -85 548 -488 1359 -1014 1977 -1281 44 -19 94
-40 110 -48 263 -114 677 -240 970 -294 231 -42 371 -54 620 -54 251 1 417 17
620 62 457 101 926 354 1277 689 197 188 388 575 474 962 26 118 28 139 28
365 0 264 -9 326 -74 525 -133 406 -446 789 -900 1102 -308 213 -503 310
-1170 588 -305 127 -602 251 -660 275 -58 24 -166 69 -240 100 -74 31 -182 76
-240 100 -58 24 -166 69 -240 100 -74 31 -182 76 -240 100 -58 24 -204 85
-325 135 -521 215 -694 289 -765 328 -699 381 -1377 957 -1817 1544 -338 449
-568 919 -697 1418 -160 620 -153 1287 19 1955 107 416 250 779 416 1057 422
705 1085 1349 1839 1788 735 427 1627 691 2530 750 91 5 185 12 210 13 134 10
577 5 790 -8z m-8709 -40 c783 -122 1412 -673 1638 -1434 57 -191 76 -332 75
-566 0 -226 -12 -322 -61 -510 -184 -709 -747 -1265 -1462 -1446 -311 -79
-671 -79 -982 0 -708 179 -1261 720 -1454 1419 -109 393 -98 799 31 1182 102
303 261 558 488 786 174 173 334 286 561 395 200 96 433 162 666 188 110 13
379 5 500 -14z m1209 -10875 l0 -5660 -1530 0 -1530 0 0 5660 0 5660 1530 0
1530 0 0 -5660z"/>
</g>
</svg>
